# xmcd
#
# Track frame offsets:
# 150
# 20509
# 39639
# 67631
# 88977
# 121953
# 138853
#
# Disc length: 2227 seconds
#
# Revision: 0
# Processed by: cddbd v1.5.2PL0 Copyright (c) Steve Scherf et al.
# Submitted via: Audion 3.0.2 (http://www.panic.com/audion/)
#
DISCID=5508b107
DTITLE=Endless Delusion - Reflections
DYEAR=1900
DGENRE=
TTITLE0=The Die is Cast
TTITLE1=The Glory of Winning
TTITLE2=The Hanging Tree
TTITLE3=Reflections
TTITLE4=Tears of Joy
TTITLE5=To Catch a Thief
TTITLE6=Whirlpool
EXTD=
EXTT0=
EXTT1=
EXTT2=
EXTT3=
EXTT4=
EXTT5=
EXTT6=
PLAYORDER=
